<?xml version="1.0" encoding="utf-8"?>
<!-- Generator: Adobe Illustrator 21.0.0, SVG Export Plug-In . SVG Version: 6.00 Build 0)  -->
<svg version="1.1" xmlns="http://www.w3.org/2000/svg" xmlns:xlink="http://www.w3.org/1999/xlink" x="0px" y="0px" width="690px"
	 height="690px" viewBox="0 0 690 690" style="enable-background:new 0 0 690 690;" xml:space="preserve">
<style type="text/css">
	.st0{display:none;}
	.st1{fill:#3897F0;}
	.st2{fill:#FFFFFF;}
</style>
<g id="Слой_1" class="st0">
	
		<image style="display:inline;overflow:visible;" width="3520" height="1080" xlink:href="6A2A30DF.jpg"  transform="matrix(1 0 0 1 -855 -152)">
	</image>
</g>
<g id="Слой_2">
	<rect x="94" y="93" class="st1" width="502.9" height="502.9"/>
	<rect x="94" y="93" transform="matrix(0.866 0.5 -0.5 0.866 218.4869 -126.5842)" class="st1" width="502.9" height="502.9"/>
	<rect x="94" y="93" transform="matrix(0.5 0.866 -0.866 0.5 470.9942 -126.966)" class="st1" width="502.9" height="502.9"/>
	<path class="st2" d="M321.3,475.6l-47-50l201.7-182.1c1.8-1.6,4.5-1.5,6.2,0.3l40.9,43.5c1.7,1.8,1.6,4.6-0.3,6.3L321.3,475.6z"/>
	<path class="st2" d="M322,475l51.7-46.6L250.6,311.8c-1.7-1.6-4.2-1.6-5.9-0.1l-44.8,39.6c-1.9,1.7-2,4.7-0.1,6.5L322,475z"/>
</g>
</svg>
